<?xml version="1.0" encoding="UTF-8" standalone="no"?>
<svg
   version="1.1"
   x="0px"
   y="0px"
   viewBox="0 0 64 64"
   enable-background="new 0 0 64 64"
   xml:space="preserve"
   id="svg1127"
   sodipodi:docname="bed.svg"
   width="64"
   height="64"
   inkscape:version="1.2.2 (b0a8486541, 2022-12-01)"
   xmlns:inkscape="http://www.inkscape.org/namespaces/inkscape"
   xmlns:sodipodi="http://sodipodi.sourceforge.net/DTD/sodipodi-0.dtd"
   xmlns="http://www.w3.org/2000/svg"
   xmlns:svg="http://www.w3.org/2000/svg"><defs
     id="defs1131" /><sodipodi:namedview
     id="namedview1129"
     pagecolor="#ffffff"
     bordercolor="#000000"
     borderopacity="0.25"
     inkscape:showpageshadow="2"
     inkscape:pageopacity="0.0"
     inkscape:pagecheckerboard="0"
     inkscape:deskcolor="#d1d1d1"
     showgrid="false"
     inkscape:zoom="9.5635882"
     inkscape:cx="32.885147"
     inkscape:cy="35.185538"
     inkscape:window-width="1916"
     inkscape:window-height="1030"
     inkscape:window-x="0"
     inkscape:window-y="0"
     inkscape:window-maximized="1"
     inkscape:current-layer="svg1127" /><g
     id="g1121"
     style="fill:#0b70b8;fill-opacity:1"><path
       d="M 5.0605469,33.479981 H 58.939453 l -7.214844,-9.160157 h -2.624511 v 0.240235 c 0,1.422851 -1.157227,2.580078 -2.580078,2.580078 H 36.149902 c -1.422851,0 -2.580078,-1.157227 -2.580078,-2.580078 v -0.240235 h -3.139648 v 0.240235 c 0,1.422851 -1.157227,2.580078 -2.580078,2.580078 H 17.47998 c -1.422851,0 -2.580078,-1.157227 -2.580078,-2.580078 v -0.240235 h -2.624511 z"
       id="path1107"
       style="fill:#0b70b8;fill-opacity:1" /><path
       d="m 17.47998,18.390137 c -0.325195,0 -0.580078,0.254394 -0.580078,0.579589 v 4.350098 1.240235 c 0,0.325195 0.254883,0.580078 0.580078,0.580078 h 10.370118 c 0.319824,0 0.580078,-0.260254 0.580078,-0.580078 v -1.240235 -4.350098 c 0,-0.319824 -0.260254,-0.579589 -0.580078,-0.579589 z"
       id="path1109"
       style="fill:#0b70b8;fill-opacity:1" /><rect
       x="6.3110352"
       y="50.360352"
       width="3.8618164"
       height="3.8623047"
       id="rect1111"
       style="fill:#0b70b8;fill-opacity:1" /><path
       d="m 51.209961,22.319824 v -9.419922 c 0,-1.720214 -1.399902,-3.1201169 -3.120117,-3.1201169 H 15.910156 c -1.720214,0 -3.120117,1.3999019 -3.120117,3.1201169 v 9.419922 h 2.109863 v -3.350098 c 0,-1.422363 1.157227,-2.579589 2.580079,-2.579589 h 10.370117 c 1.422851,0 2.580078,1.157226 2.580078,2.579589 v 3.350098 h 3.139648 v -3.350098 c 0,-1.422363 1.157227,-2.579589 2.580078,-2.579589 H 46.52002 c 1.422851,0 2.580078,1.157226 2.580078,2.579589 v 3.350098 z"
       id="path1113"
       style="fill:#0b70b8;fill-opacity:1" /><path
       d="m 36.149902,18.390137 c -0.319824,0 -0.580078,0.259765 -0.580078,0.579589 v 4.350098 1.240235 c 0,0.319824 0.260254,0.580078 0.580078,0.580078 H 46.52002 c 0.325195,0 0.580078,-0.254883 0.580078,-0.580078 v -1.240235 -4.350098 c 0,-0.325195 -0.254883,-0.579589 -0.580078,-0.579589 z"
       id="path1115"
       style="fill:#0b70b8;fill-opacity:1" /><polygon
       points="52.827148,48.360352 58.688965,48.360352 60,48.360352 60,35.479981 4,35.479981 4,48.360352 5.3110352,48.360352 11.172852,48.360352 "
       id="polygon1117"
       style="fill:#0b70b8;fill-opacity:1" /><rect
       x="53.827148"
       y="50.360352"
       width="3.8618164"
       height="3.8623047"
       id="rect1119"
       style="fill:#0b70b8;fill-opacity:1" /></g></svg>
