<?xml version="1.0" encoding="UTF-8" standalone="no"?>
<svg
   version="1.1"
   x="0px"
   y="0px"
   viewBox="0 0 64 64"
   enable-background="new 0 0 64 64"
   xml:space="preserve"
   id="svg2816"
   sodipodi:docname="sofa.svg"
   width="64"
   height="64"
   inkscape:version="1.2.2 (b0a8486541, 2022-12-01)"
   xmlns:inkscape="http://www.inkscape.org/namespaces/inkscape"
   xmlns:sodipodi="http://sodipodi.sourceforge.net/DTD/sodipodi-0.dtd"
   xmlns="http://www.w3.org/2000/svg"
   xmlns:svg="http://www.w3.org/2000/svg"><defs
     id="defs2820" /><sodipodi:namedview
     id="namedview2818"
     pagecolor="#ffffff"
     bordercolor="#000000"
     borderopacity="0.25"
     inkscape:showpageshadow="2"
     inkscape:pageopacity="0.0"
     inkscape:pagecheckerboard="0"
     inkscape:deskcolor="#d1d1d1"
     showgrid="false"
     inkscape:zoom="10.8875"
     inkscape:cx="32.055109"
     inkscape:cy="28.335247"
     inkscape:window-width="951"
     inkscape:window-height="1030"
     inkscape:window-x="965"
     inkscape:window-y="0"
     inkscape:window-maximized="1"
     inkscape:current-layer="svg2816" /><g
     id="g2810"
     style="fill:#f18219;fill-opacity:1"><path
       d="m 57.519531,28.846191 c -1.451172,0.0044 -2.61914,1.240723 -2.61914,2.699219 v 3.305664 8.416993 c 0,0.552246 -0.447266,1 -1,1 -0.552735,0 -1,-0.447754 -1,-1 V 35.851074 H 32.005859 11.099609 v 7.416993 c 0,0.552246 -0.447265,1 -1,1 -0.552734,0 -0.9999996,-0.447754 -0.9999996,-1 v -8.416993 -3.457031 c 0,-0.681152 -0.2646484,-1.321289 -0.7451172,-1.801758 C 8.2939453,29.531738 8.2255859,29.470703 8.1572266,29.417969 8.022461,29.307129 7.9023438,29.228027 7.7744141,29.15625 7.7207031,29.12793 7.6416016,29.088379 7.5625,29.053223 c -0.069336,-0.03076 -0.1386719,-0.05664 -0.2089844,-0.07861 -0.071289,-0.02441 -0.1044922,-0.03027 -0.1386719,-0.0376 -0.1503906,-0.03906 -0.2470703,-0.05762 -0.3476563,-0.06885 -0.1269531,-0.01611 -0.1748047,-0.0078 -0.2529297,-0.01855 -0.00128,-1.22e-4 -0.0025,-3.05e-4 -0.00378,-4.27e-4 -3.662e-4,-6.1e-5 -7.324e-4,0 -0.0011,-6.1e-5 -0.00641,-6.71e-4 -0.013428,-0.0015 -0.020142,-0.0021 -0.0047,-4.88e-4 -0.00934,-2.44e-4 -0.014038,-7.94e-4 -0.00183,-6.1e-5 -0.00336,-0.0012 -0.00519,-0.0013 -0.0022,-2.44e-4 -0.00427,-3.66e-4 -0.00653,-6.72e-4 -5.493e-4,-6.1e-5 -0.00104,-3.66e-4 -0.00159,-4.27e-4 -0.00751,-9.77e-4 -0.015747,-0.0013 -0.022827,-0.0025 C 5.1699219,28.850586 4,30.086914 4,31.54541 V 46.271484 H 60 V 31.394043 c 0,-0.681152 -0.264648,-1.321289 -0.745117,-1.801758 -0.465821,-0.465332 -1.082031,-0.730469 -1.735352,-0.746094 z"
       id="path2804"
       style="fill:#f18219;fill-opacity:1" /><path
       d="m 7.9882813,27.078613 c 0.1074218,0.0332 0.2509765,0.08643 0.3867187,0.146973 0.1201172,0.05322 0.2421875,0.114258 0.3583984,0.175781 0.2626953,0.147461 0.4755859,0.291992 0.671875,0.453613 0.1113281,0.08545 0.2441406,0.204102 0.3632813,0.323243 0.8583983,0.858398 1.3310543,2.000488 1.3310543,3.21582 v 2.457031 h 19.90625 V 27.955566 C 31.001953,27.919922 31,27.883301 31,27.84668 v -6.331055 c 0,-2.088379 -1.699219,-3.787598 -3.787109,-3.787598 H 11.339844 c -2.0878908,0 -3.7871096,1.699219 -3.7871096,3.787598 v 5.444824 c 0.042969,0.01025 0.086914,0.02148 0.1308594,0.0332 0.069336,0.01318 0.1826171,0.0415 0.3046875,0.08496 z"
       id="path2806"
       style="fill:#f18219;fill-opacity:1" /><path
       d="M 33.005859,33.851074 H 52.900391 V 31.54541 31.394043 c 0,-2.164063 1.519531,-3.979981 3.546875,-4.436523 v -5.441895 c 0,-2.088379 -1.699219,-3.787598 -3.78711,-3.787598 H 36.787109 C 34.699219,17.728027 33,19.427246 33,21.515625 v 6.222656 c 0.0039,0.03564 0.0059,0.07178 0.0059,0.108399 z"
       id="path2808"
       style="fill:#f18219;fill-opacity:1" /></g></svg>
