<?xml version="1.0" encoding="UTF-8" standalone="no"?>
<svg
   version="1.1"
   viewBox="-5 -10 88.796402 63.96048"
   id="svg1094"
   sodipodi:docname="sunrise.svg"
   width="88.796402"
   height="63.96048"
   inkscape:version="1.2.2 (b0a8486541, 2022-12-01)"
   xmlns:inkscape="http://www.inkscape.org/namespaces/inkscape"
   xmlns:sodipodi="http://sodipodi.sourceforge.net/DTD/sodipodi-0.dtd"
   xmlns="http://www.w3.org/2000/svg"
   xmlns:svg="http://www.w3.org/2000/svg">
  <defs
     id="defs1098" />
  <sodipodi:namedview
     id="namedview1096"
     pagecolor="#ffffff"
     bordercolor="#000000"
     borderopacity="0.25"
     inkscape:showpageshadow="2"
     inkscape:pageopacity="0.0"
     inkscape:pagecheckerboard="0"
     inkscape:deskcolor="#d1d1d1"
     showgrid="false"
     inkscape:zoom="6.0814815"
     inkscape:cx="44.150426"
     inkscape:cy="30.338002"
     inkscape:window-width="1916"
     inkscape:window-height="1030"
     inkscape:window-x="0"
     inkscape:window-y="0"
     inkscape:window-maximized="1"
     inkscape:current-layer="svg1094" />
  <path
     d="M 42.5234,-6.3750001 V 4.2230002 c 0,1.7266 -1.3984,3.125 -3.125,3.125 -1.7266,0 -3.125,-1.3984 -3.125,-3.125 V -6.3750001 c 0,-1.7266 1.3984,-3.1249999 3.125,-3.1249999 1.7266,0 3.125,1.3983999 3.125,3.1249999 z m -29.75,9.7305003 c -1.2227,-1.2227 -3.1953001,-1.2227 -4.418,0 -1.2227,1.2227 -1.2227,3.1992 0,4.418 L 15.3085,14.7227 c 0.60938,0.60938 1.4102,0.91406 2.2109,0.91406 0.80078,0 1.6016,-0.30469 2.2109,-0.91406 1.2227,-1.2227 1.2227,-3.1992 0,-4.418 L 12.7772,3.3555002 Z M 8.1484,31.2695 H -1.375 c -1.7266,0 -3.125,1.3984 -3.125,3.125 0,1.7266 1.3984,3.125 3.125,3.125 h 9.5234 c 1.7265999,0 3.125,-1.3984 3.125,-3.125 0,-1.7266 -1.3984001,-3.125 -3.125,-3.125 z m 72.023,0 H 70.648 c -1.7266,0 -3.125,1.3984 -3.125,3.125 0,1.7266 1.3984,3.125 3.125,3.125 h 9.5234 c 1.7266,0 3.125,-1.3984 3.125,-3.125 0,-1.7266 -1.3984,-3.125 -3.125,-3.125 z M 70.4409,3.3555002 c -1.2227,-1.2227 -3.1953,-1.2227 -4.418,0 L 59.0698,10.3047 c -1.2227,1.2188 -1.2227,3.1953 0,4.418 0.60938,0.60938 1.4102,0.91406 2.2109,0.91406 0.80078,0 1.6016,-0.30469 2.2109,-0.91406 l 6.9531,-6.9491998 c 1.2227,-1.2188 1.2227,-3.1953 0,-4.418 z M 80.7259,51.0855 72.5462,52.9722 c -1.4141,0.32422 -2.8672,0.48828 -4.3086,0.48828 -2.7812,0 -5.5508,-0.59766 -8.0859,-1.7656 l -1.7812,-0.82031 c -3.4609,-1.6016 -7.4414,-1.5977 -10.902,0 -5.1484,2.3828 -11.039,2.375 -16.164,0.0078 -3.4727,-1.6016 -7.4453,-1.6016 -10.918,0 l -1.7422,0.80469 c -3.8672,1.7812 -8.2734,2.2422 -12.414,1.2812 l -8.1484,-1.8828 c -1.6836,-0.38672 -2.7305,-2.0664 -2.3438,-3.7461 0.39062,-1.6797 2.0703,-2.7266 3.74610004,-2.3398 L 7.6326,46.88236 c 2.8008,0.64062 5.7773,0.33594 8.3906,-0.86719 l 1.2734,-0.58984 c -1.707,-3.3867 -2.6094,-7.1328 -2.6094,-11.027 0,-13.629 11.09,-24.7189998 24.719,-24.7189998 13.629,0 24.719,11.0859998 24.719,24.7189998 0,3.8906 -0.91016,7.6367 -2.625,11.035 l 1.2734,0.58594 c 2.6016,1.2031 5.5703,1.5078 8.375,0.86328 l 8.1797,-1.8867 c 1.6797,-0.375 3.3594,0.66016 3.7461,2.3438 0.38672,1.6797 -0.66406,3.3594 -2.3438,3.7461 z m -25.398,-7.4922 c 1.6602,-2.8516 2.5391,-5.9531 2.5391,-9.1953 0,-10.184 -8.2852,-18.469 -18.469,-18.469 -10.1838,0 -18.469,8.2852 -18.469,18.469 0,3.2891 0.89844,6.418 2.5234,9.1953 3.5352,-0.44531 7.1562,0.08594 10.465,1.6172 3.4648,1.6016 7.4453,1.6016 10.91,0 3.3281,-1.5391 6.9609,-2.0625 10.504,-1.6172 z"
     id="path1088"
     style="fill:#ffc000;fill-opacity:1;stroke:#ffc000;stroke-opacity:1" />
</svg>
