<?xml version="1.0" encoding="UTF-8" standalone="no"?>
<svg
   version="1.1"
   viewBox="-5 -10 87.796799 62.96883"
   id="svg6413"
   sodipodi:docname="sunset.svg"
   width="87.796799"
   height="62.96883"
   inkscape:version="1.2.2 (b0a8486541, 2022-12-01)"
   xmlns:inkscape="http://www.inkscape.org/namespaces/inkscape"
   xmlns:sodipodi="http://sodipodi.sourceforge.net/DTD/sodipodi-0.dtd"
   xmlns="http://www.w3.org/2000/svg"
   xmlns:svg="http://www.w3.org/2000/svg">
  <defs
     id="defs6417" />
  <sodipodi:namedview
     id="namedview6415"
     pagecolor="#ffffff"
     bordercolor="#000000"
     borderopacity="0.25"
     inkscape:showpageshadow="2"
     inkscape:pageopacity="0.0"
     inkscape:pagecheckerboard="0"
     inkscape:deskcolor="#d1d1d1"
     showgrid="false"
     inkscape:zoom="6.4518519"
     inkscape:cx="43.165901"
     inkscape:cy="31.85132"
     inkscape:window-width="1916"
     inkscape:window-height="1030"
     inkscape:window-x="0"
     inkscape:window-y="0"
     inkscape:window-maximized="1"
     inkscape:current-layer="svg6413" />
  <path
     d="m 14.7104,38.997 c 6.7812,-3.0938 14.562,-3.0938 21.312,0.03125 1.8125,0.84375 3.875,0.84375 5.6875,0 6.7812,-3.125 14.562,-3.125 21.375,0 0.34375,-1.6562 0.53125,-3.375 0.53125,-5.125 0,-13.625 -11.094,-24.719 -24.719,-24.719 -13.625,0 -24.719,11.094 -24.719,24.719 0,1.75 0.1875,3.4688 0.53125,5.0938 z"
     id="path6395"
     style="fill:#ff8000;fill-opacity:1" />
  <path
     d="m 38.8984,6.848 c 1.7266,0 3.125,-1.3984 3.125,-3.125 V -6.875 c 0,-1.7266 -1.3984,-3.125 -3.125,-3.125 -1.7266,0 -3.125,1.3984 -3.125,3.125 V 3.723 c 0,1.7266 1.3984,3.125 3.125,3.125 z"
     id="path6397"
     style="fill:#ff8000;fill-opacity:1" />
  <path
     d="m 14.8084,14.231 c 0.60938,0.60938 1.4102,0.91406 2.2109,0.91406 0.80078,0 1.6016,-0.30469 2.2109,-0.91406 1.2227,-1.2227 1.2227,-3.1992 0,-4.418 L 12.2771,2.8638 c -1.2227,-1.2227 -3.1953,-1.2227 -4.418,0 -1.2227,1.2227 -1.2227,3.1992 0,4.418 l 6.9531,6.9492 z"
     id="path6399"
     style="fill:#ff8000;fill-opacity:1" />
  <path
     d="m -1.875,37.028 h 9.5234 c 1.7265996,0 3.125,-1.3984 3.125,-3.125 0,-1.7266 -1.3984004,-3.125 -3.125,-3.125 H -1.875 c -1.7266,0 -3.125,1.3984 -3.125,3.125 0,1.7266 1.3984,3.125 3.125,3.125 z"
     id="path6401"
     style="fill:#ff8000;fill-opacity:1" />
  <path
     d="m 67.0234,33.903 c 0,1.7266 1.3984,3.125 3.125,3.125 h 9.5234 c 1.7266,0 3.125,-1.3984 3.125,-3.125 0,-1.7266 -1.3984,-3.125 -3.125,-3.125 h -9.5234 c -1.7266,0 -3.125,1.3984 -3.125,3.125 z"
     id="path6403"
     style="fill:#ff8000;fill-opacity:1" />
  <path
     d="m 60.7814,15.145 c 0.80078,0 1.6016,-0.30469 2.2109,-0.91406 l 6.9531,-6.9492 c 1.2227,-1.2188 1.2227,-3.1953 0,-4.418 -1.2227,-1.2227 -3.1953,-1.2227 -4.418,0 l -6.9531,6.9492 c -1.2227,1.2188 -1.2227,3.1953 0,4.418 0.60938,0.60938 1.4102,0.91406 2.2109,0.91406 z"
     id="path6405"
     style="fill:#ff8000;fill-opacity:1" />
  <path
     d="m 78.8204,44.504 -8.1797,1.8867 c -2.8008,0.64844 -5.7734,0.33594 -8.375,-0.86328 l -1.7812,-0.82031 c -5.1328,-2.3633 -11.012,-2.3633 -16.16,0.01172 -3.4648,1.6016 -7.4453,1.5977 -10.91,0 -5.1328,-2.3711 -11.023,-2.3711 -16.16,0 l -1.7422,0.80469 c -2.6133,1.2031 -5.5898004,1.5078 -8.3906,0.86719 l -8.1484,-1.8828 c -1.6758,-0.38672 -3.3555,0.66016 -3.7461,2.3398 -0.38672,1.6797 0.66016,3.3594 2.3438,3.7461 l 8.1484,1.8828 c 4.1366996,0.96094 8.5469,0.5 12.414,-1.2812 l 1.7422,-0.80469 c 3.4727,-1.6016 7.4453,-1.6016 10.918,0 5.1289,2.3672 11.012,2.375 16.164,-0.0078 3.4609,-1.6016 7.4414,-1.6016 10.902,0 l 1.7812,0.82031 c 2.5391,1.168 5.3047,1.7656 8.0859,1.7656 1.4453,0 2.8945,-0.16406 4.3086,-0.48828 l 8.1797,-1.8867 c 1.6797,-0.39062 2.7305,-2.0664 2.3438,-3.7461 -0.38672,-1.6836 -2.0664,-2.7188 -3.7461,-2.3438 z"
     id="path6407"
     style="fill:#ff8000;fill-opacity:1" />
</svg>
